<svg width="60" height="60" viewBox="0 0 60 60" fill="none" xmlns="http://www.w3.org/2000/svg">
<rect x="1" y="1" width="58" height="58" rx="29" fill="#EEF3FF"/>
<rect x="1" y="1" width="58" height="58" rx="29" stroke="#97A7E7" stroke-width="2"/>
<path fill-rule="evenodd" clip-rule="evenodd" d="M31.4167 20.4167C31.4167 19.9083 31.2147 19.4208 30.8553 19.0614C30.4958 18.7019 30.0083 18.5 29.5 18.5C28.9917 18.5 28.5042 18.7019 28.1447 19.0614C27.7853 19.4208 27.5833 19.9083 27.5833 20.4167V28.0833H19.9167C19.4083 28.0833 18.9208 28.2853 18.5614 28.6447C18.2019 29.0042 18 29.4917 18 30C18 30.5083 18.2019 30.9958 18.5614 31.3553C18.9208 31.7147 19.4083 31.9167 19.9167 31.9167H27.5833V39.5833C27.5833 40.0917 27.7853 40.5792 28.1447 40.9386C28.5042 41.2981 28.9917 41.5 29.5 41.5C30.0083 41.5 30.4958 41.2981 30.8553 40.9386C31.2147 40.5792 31.4167 40.0917 31.4167 39.5833V31.9167H39.0833C39.5917 31.9167 40.0792 31.7147 40.4386 31.3553C40.7981 30.9958 41 30.5083 41 30C41 29.4917 40.7981 29.0042 40.4386 28.6447C40.0792 28.2853 39.5917 28.0833 39.0833 28.0833H31.4167V20.4167Z" fill="#575E7C"/>
</svg>
