<svg width="23" height="23" viewBox="0 0 23 23" fill="none" xmlns="http://www.w3.org/2000/svg">
<g clip-path="url(#clip0_430_123)">
<path fill-rule="evenodd" clip-rule="evenodd" d="M8.21429 0C7.99643 0 7.7875 0.0865431 7.63345 0.240591C7.4794 0.394639 7.39286 0.603572 7.39286 0.821429V7.39286H0.821429C0.603572 7.39286 0.394639 7.4794 0.240591 7.63345C0.0865431 7.7875 0 7.99643 0 8.21429L0 14.7857C0 15.0036 0.0865431 15.2125 0.240591 15.3666C0.394639 15.5206 0.603572 15.6071 0.821429 15.6071H7.39286V22.1786C7.39286 22.3964 7.4794 22.6054 7.63345 22.7594C7.7875 22.9135 7.99643 23 8.21429 23H14.7857C15.0036 23 15.2125 22.9135 15.3666 22.7594C15.5206 22.6054 15.6071 22.3964 15.6071 22.1786V15.6071H22.1786C22.3964 15.6071 22.6054 15.5206 22.7594 15.3666C22.9135 15.2125 23 15.0036 23 14.7857V8.21429C23 7.99643 22.9135 7.7875 22.7594 7.63345C22.6054 7.4794 22.3964 7.39286 22.1786 7.39286H15.6071V0.821429C15.6071 0.603572 15.5206 0.394639 15.3666 0.240591C15.2125 0.0865431 15.0036 0 14.7857 0L8.21429 0Z" fill="#81859E"/>
</g>
<defs>
<clipPath id="clip0_430_123">
<rect width="23" height="23" fill="white"/>
</clipPath>
</defs>
</svg>
