<svg width="27" height="27" viewBox="0 0 27 27" fill="none" xmlns="http://www.w3.org/2000/svg">
<path d="M24.5208 8.48922L11.0208 21.9892C10.9032 22.1072 10.7635 22.2008 10.6096 22.2647C10.4558 22.3286 10.2908 22.3615 10.1243 22.3615C9.95769 22.3615 9.79276 22.3286 9.63892 22.2647C9.48508 22.2008 9.34536 22.1072 9.22778 21.9892L3.32153 16.083C3.2038 15.9652 3.11042 15.8255 3.0467 15.6717C2.98299 15.5178 2.9502 15.353 2.9502 15.1865C2.9502 15.02 2.98299 14.8551 3.0467 14.7013C3.11042 14.5475 3.2038 14.4077 3.32153 14.29C3.43926 14.1723 3.57902 14.0789 3.73284 14.0152C3.88666 13.9515 4.05152 13.9187 4.21802 13.9187C4.38451 13.9187 4.54937 13.9515 4.70319 14.0152C4.85701 14.0789 4.99677 14.1723 5.1145 14.29L10.1253 19.3008L22.7299 6.69836C22.9677 6.4606 23.2901 6.32703 23.6264 6.32703C23.9626 6.32703 24.2851 6.4606 24.5229 6.69836C24.7606 6.93612 24.8942 7.2586 24.8942 7.59485C24.8942 7.93109 24.7606 8.25357 24.5229 8.49133L24.5208 8.48922Z" fill="#F2F9FE"/>
</svg>
