<svg width="29" height="29" viewBox="0 0 29 29" fill="none" xmlns="http://www.w3.org/2000/svg">
<path d="M23.9686 12.6709C23.9411 12.8809 23.8529 13.0783 23.7148 13.2388L11.9336 26.1801C11.7842 26.3732 11.5766 26.513 11.3415 26.5788C11.2408 26.5909 11.1401 26.5909 11.0394 26.5788C10.8684 26.578 10.6996 26.541 10.544 26.4701C10.3017 26.3563 10.1086 26.1589 10.0002 25.9143C9.89488 25.6965 9.86511 25.4499 9.91563 25.2134L10.9548 16.9243H6.56855C6.31783 16.9087 6.0721 16.8472 5.84355 16.743C5.61984 16.6252 5.42815 16.4547 5.28501 16.2463C5.14186 16.0379 5.05156 15.7978 5.02188 15.5468C4.99652 15.2919 5.03385 15.0347 5.13063 14.7976L9.69813 3.37884C9.81897 3.09005 10.0195 2.84234 10.2781 2.66592C10.5369 2.4977 10.8395 2.40945 11.1481 2.41217H19.8965C20.149 2.417 20.3967 2.47863 20.6215 2.59342C20.8486 2.7203 21.0432 2.89913 21.1894 3.113C21.3247 3.3293 21.4069 3.57217 21.4311 3.82592C21.4558 4.07795 21.4142 4.33208 21.3102 4.563L18.4223 11.2934H22.8327C23.0519 11.3008 23.2649 11.3676 23.449 11.4868C23.643 11.6165 23.7954 11.7996 23.8876 12.014C23.9798 12.2285 24.0079 12.465 23.9686 12.6951V12.6709Z" fill="#81859E"/>
</svg>
