<svg width="441" height="92" viewBox="0 0 441 92" fill="none" xmlns="http://www.w3.org/2000/svg">
<path d="M65.53 91.6802H43.44L28.06 58.8602H0V1.59018C5.25 0.950176 14.4 0.440176 20.26 0.180176V44.3202H27.7C36.97 44.3202 41.73 38.1402 41.73 29.5202C41.73 20.9002 36.48 15.7502 27.57 15.7502H25.25V0.180176C28.55 0.310176 31.84 0.440176 34.77 0.950176C53.2 3.52018 62.11 13.6902 62.11 27.9802C62.11 39.4302 56.74 48.9602 46.86 54.2402L65.53 91.6902V91.6802ZM0 64.0102H20.26V91.6802H0V64.0102Z" fill="#7884ED"/>
<path d="M349.726 21.1495C338.756 14.8395 327.786 8.51948 316.816 2.20948C311.796 -0.680524 305.466 -0.740523 300.386 2.05948C289.526 8.03948 278.676 14.0195 267.816 20.0095C262.106 23.1595 259.086 29.2795 260.246 35.3795C262.976 49.7395 265.716 64.0895 268.446 78.4495C269.786 85.4995 276.336 90.6495 284.006 90.6895C300.046 90.7795 316.076 90.8595 332.116 90.9495C339.716 90.9895 346.286 86.0095 347.786 79.0595C350.846 64.9495 353.906 50.8395 356.966 36.7295C358.286 30.6395 355.396 24.4195 349.726 21.1595V21.1495ZM326.966 65.2495C326.966 68.5295 324.306 71.1795 321.036 71.1795H296.316C293.036 71.1795 290.386 68.5195 290.386 65.2495V52.1295C290.386 48.8495 293.046 46.1995 296.316 46.1995H315.816C315.846 45.4995 315.886 44.5095 315.876 43.3395C315.876 42.4895 315.846 41.6395 315.756 40.5795C315.656 39.3295 315.486 38.0795 315.096 36.8795C314.356 34.6195 312.846 32.0995 310.246 31.4095C307.526 30.6795 303.736 31.3095 301.876 33.4295C301.046 34.3795 300.246 36.1295 299.986 36.8895C299.786 37.4495 299.666 37.9395 299.596 38.2895L299.426 39.1195C297.076 39.1795 294.736 39.2295 292.386 39.2895C292.466 37.7895 292.766 35.2995 294.016 32.5595C294.306 31.9295 295.656 29.0895 297.986 26.9895C303.666 21.8895 313.076 22.0095 318.456 27.3495C321.396 30.2695 322.686 34.2995 322.736 34.4795C323.306 36.3295 323.446 37.8595 323.556 39.5795C323.676 41.5195 323.796 43.9795 323.816 46.8895C325.696 47.8895 326.966 49.8595 326.966 52.1295V65.2495Z" fill="#7884ED"/>
<path d="M310.845 55.1894C310.705 55.0394 309.895 54.2094 308.595 54.2494C308.475 54.2494 307.325 54.2994 306.515 55.1894C305.965 55.7894 305.865 56.4394 305.825 56.7494C305.785 57.0394 305.715 57.6294 306.025 58.2894C306.415 59.1394 307.145 59.5094 307.145 59.5094C307.145 60.5694 307.135 61.6294 307.125 62.6894C307.175 63.4294 307.795 64.0094 308.545 64.0594C309.345 64.1094 310.085 63.5394 310.185 62.7594C310.165 61.6694 310.135 60.5894 310.115 59.4994C310.365 59.3494 310.945 58.9494 311.305 58.1994C311.595 57.5794 311.595 57.0094 311.565 56.7394C311.535 56.4694 311.415 55.7894 310.835 55.1794L310.845 55.1894Z" fill="#7884ED"/>
<path d="M440.85 91.86H418.76L403.38 58.91H375.31V1.42C380.56 0.77 389.71 0.26 395.57 0V44.32H403.01C412.28 44.32 417.04 38.12 417.04 29.46C417.04 20.8 411.79 15.64 402.88 15.64H400.56V0C403.86 0.13 407.15 0.26 410.08 0.78C428.51 3.36 437.42 13.57 437.42 27.91C437.42 39.41 432.05 48.97 422.17 54.27L440.84 91.87L440.85 91.86ZM375.32 64.08H395.58V91.86H375.32V64.08Z" fill="#7884ED"/>
<path d="M75.6001 91.6802V0.180176H98.8101V91.6902H75.6001V91.6802Z" fill="#7884ED"/>
<path d="M164.07 75.5702C160.37 84.8102 151.28 90.5102 138.38 91.5202C136.95 91.6502 135.51 91.6502 133.96 91.6502C124.88 91.4002 115.92 88.8702 109.11 84.8202L113.65 69.6302C122.01 73.5502 128.95 75.5802 135.28 75.5802H164.08L164.07 75.5702ZM165.98 70.5102H147.1C147.82 69.6202 148.29 68.1102 148.29 66.4602C148.29 52.4102 114.95 54.8202 112.08 29.8802C111.48 25.7002 111.72 21.7802 112.92 17.8602C115.55 10.0102 121.76 4.82019 129.77 2.29019V15.7102C129.77 19.7602 130.13 23.4302 130.73 27.1002C133.6 38.4902 166.94 36.0902 166.94 64.1902C166.94 66.4702 166.58 68.6202 165.98 70.5202V70.5102ZM160.6 20.5102C156.06 18.4802 151.28 17.2202 146.86 16.7102C142.92 16.3302 138.62 16.4602 134.67 17.4702V1.02019C138.73 0.260191 142.8 0.0101908 146.74 0.390191C153.19 0.900191 159.17 2.79019 164.31 5.45019L160.61 20.5102H160.6Z" fill="#7884ED"/>
<path d="M179.97 91.7601V0.100098H200.36V91.7601H179.97ZM205.39 69.5001V35.8501L228.98 0.100098H250.84L205.39 69.5001ZM212.39 67.4101L224.92 47.6401L251.94 91.7701H227.25L212.39 67.4101Z" fill="#7884ED"/>
</svg>
